PathFileType	4	(X/Y/Z)	/Users/niels/Desktop/University/Third Semester/Perception and Action/Exam/Gymnastics Motion Tracking/Code for Gym Tracking/Analyzed Data/Webcam_Backflip/id19_1_trajectory_Sports2D/id19_1_trajectory_Sports2D_px_person00.trc
DataRate	CameraRate	NumFrames	NumMarkers	Units	OrigDataRate	OrigDataStartFrame	OrigNumFrames
29.702970297029704	29.702970297029704	11	22	m	29.702970297029704	88	101
Frame#	Time	Hip			RHip			RKnee			RAnkle			RBigToe			RSmallToe			RHeel			LHip			LKnee			LAnkle			LBigToe			LSmallToe			LHeel			Neck			Head			Nose			RShoulder			RElbow			RWrist			LShoulder			LElbow			LWrist		
		X1	Y1	Z1	X2	Y2	Z2	X3	Y3	Z3	X4	Y4	Z4	X5	Y5	Z5	X6	Y6	Z6	X7	Y7	Z7	X8	Y8	Z8	X9	Y9	Z9	X10	Y10	Z10	X11	Y11	Z11	X12	Y12	Z12	X13	Y13	Z13	X14	Y14	Z14	X15	Y15	Z15	X16	Y16	Z16	X17	Y17	Z17	X18	Y18	Z18	X19	Y19	Z19	X20	Y20	Z20	X21	Y21	Z21	X22	Y22	Z22
88	2.9626666666666663	1.044852356817514	-0.4749195042895588	0.0	1.02272883019445	-0.4731792830942261	0.0	1.0240574085627865	-0.5775887998109468	0.0	1.0302636886318721	-0.6796144692574998	0.0	1.033498969448284	-0.7086615637528373	0.0	1.0195065969256447	-0.7047638661468535	0.0	1.0334238773623283	-0.6872906257068896	0.0	1.0678858741115878	-0.4722715915730569	0.0	1.0691767333280116	-0.5760221786838569	0.0	1.0674589831858414	-0.675416822270372	0.0	1.069318292824518	-0.7078483395061775	0.0	1.0811166162954955	-0.7038733457100834	0.0	1.0644398556129706	-0.6827104426039339	0.0	1.0425021478855339	-0.33483244539078005	0.0	1.0365923055164574	-0.2704777875121263	0.0	1.0406872341001916	-0.3069283671259254	0.0	1.002809553889184	-0.35503392311491166	0.0	0.9840497477963146	-0.4102391313933752	0.0	1.0184464496544992	-0.4530604303145958	0.0	1.0869011677528708	-0.3480050815825817	0.0	1.1254951826804578	-0.3898259460207745	0.0	1.1508183287362947	-0.43160964953482966	0.0
89	2.9963333333333333	1.0477095322719334	-0.4840679829259493	0.0	1.0258346868290626	-0.48229611011574286	0.0	1.0278848827719156	-0.5859308516518401	0.0	1.034854889096501	-0.6875422582955817	0.0	1.0378201117447505	-0.7164181943524137	0.0	1.024116615179239	-0.7124958320983554	0.0	1.0379544668205536	-0.6951359205371247	0.0	1.0714673141591367	-0.4806845792602739	0.0	1.073987626071725	-0.5842814229658349	0.0	1.0751087736493652	-0.6841353231881713	0.0	1.0776782386081567	-0.7158772709284345	0.0	1.0894887838762106	-0.7116207757718815	0.0	1.072244538768119	-0.691756790999373	0.0	1.045233277942569	-0.3416197740674767	0.0	1.0401089705712034	-0.27671351111350706	0.0	1.0431693961755941	-0.31343389917083336	0.0	1.0052409457576341	-0.36278991875262223	0.0	0.9835663999201835	-0.41807153480735015	0.0	1.0118187027556458	-0.4656868248306908	0.0	1.0898800725522035	-0.35633346541342104	0.0	1.1291019210991537	-0.3986258970012173	0.0	1.1501040919826393	-0.44542329372862105	0.0
90	3.03	1.0506511663525506	-0.4963845153963517	0.0	1.0288996473532523	-0.4945858123207022	0.0	1.0318819288103476	-0.5974651503293842	0.0	1.0395136263600624	-0.6986853213485069	0.0	1.0424225640605636	-0.7277879205119355	0.0	1.0288054663611996	-0.7237798853005899	0.0	1.042460154689186	-0.7064008931176358	0.0	1.0751122377840705	-0.4924196161560358	0.0	1.0789397151610036	-0.5958276884719966	0.0	1.0829029720689003	-0.6962600834826033	0.0	1.0853622725750716	-0.7273398737127662	0.0	1.0978451736818484	-0.7227982398533194	0.0	1.080248619372744	-0.7044806927785818	0.0	1.0480795326434358	-0.3516341472151754	0.0	1.0436166212084603	-0.2859270997154452	0.0	1.0457000189523011	-0.3230861517808249	0.0	1.0077849004602095	-0.3736515653668276	0.0	0.9838156805981467	-0.4285189688101564	0.0	1.006426668786985	-0.48033746155928414	0.0	1.093007481110699	-0.3680064575883068	0.0	1.1328517495749109	-0.4102707532747727	0.0	1.1490522680598971	-0.46120193063808396	0.0
91	3.0636666666666663	1.0537575497057226	-0.5117156886418084	0.0	1.0319699289505402	-0.5100290287726408	0.0	1.035996208845587	-0.6123720727015802	0.0	1.0443204828120567	-0.7131935068614379	0.0	1.0472505202211657	-0.7426966319276459	0.0	1.0335974710177667	-0.7385272922547187	0.0	1.0471701147818429	-0.721172985908643	0.0	1.078772181473127	-0.5074977886955752	0.0	1.0840712386740199	-0.6107062936159097	0.0	1.0906649622546791	-0.7118576909206498	0.0	1.0923551271975567	-0.7423664275982266	0.0	1.106057200038676	-0.737479212860214	0.0	1.0883467095007966	-0.7208449368415475	0.0	1.0510062240454034	-0.36493287601638996	0.0	1.0469529130869546	-0.29829535795518713	0.0	1.0481898520185993	-0.3360706382840132	0.0	1.0105022546283509	-0.3877401626313968	0.0	0.9848509625212741	-0.4419468589966077	0.0	1.0025487596279365	-0.4972271954324493	0.0	1.0962245884394262	-0.38273417472139826	0.0	1.1366727473094689	-0.42488967174534814	0.0	1.1479852516673463	-0.478968461642024	0.0
92	3.0973333333333333	1.0570481712684974	-0.5299535272820489	0.0	1.0351046508998745	-0.5286117130591329	0.0	1.040195128706984	-0.6307010391658273	0.0	1.0493409737894415	-0.7310495973753405	0.0	1.0522058841088537	-0.7607962817174787	0.0	1.0385061471282289	-0.7563662133196581	0.0	1.0522828422176023	-0.7393788405079503	0.0	1.082405485381661	-0.5258833846466027	0.0	1.0893619586648036	-0.6288784127210886	0.0	1.0982371399191782	-0.7307872381444723	0.0	1.098793108479468	-0.760758246337451	0.0	1.1140334957787597	-0.7554263682230028	0.0	1.0964004336092137	-0.7406349490368129	0.0	1.0539521669186684	-0.38160684388281463	0.0	1.0500164108261076	-0.3140520258326186	0.0	1.0505262993792923	-0.3525464193071706	0.0	1.0133497370000801	-0.4051909677480268	0.0	0.9866718120882184	-0.4586846805602507	0.0	1.000326757763242	-0.5164621833378339	0.0	1.0994194933078427	-0.40035053180034896	0.0	1.1404916154320894	-0.4425778424516866	0.0	1.1471121538271813	-0.49880072286571814	0.0
93	3.131	1.0604979750862198	-0.55103018774699	0.0	1.0383227580761771	-0.55022538116487	0.0	1.044450657607929	-0.6522761589137368	0.0	1.0545797599173456	-0.7519989498989487	0.0	1.057131060667197	-0.7815583962045584	0.0	1.0434929022639234	-0.7767153814541188	0.0	1.0578773086831843	-0.7607237920363314	0.0	1.0859900398564741	-0.5474336397077099	0.0	1.094682099163403	-0.6501713564542051	0.0	1.1054371932375922	-0.752693518083416	0.0	1.104785313945364	-0.7819812441157776	0.0	1.121644608580328	-0.7761481979741836	0.0	1.104198455160236	-0.763407390234335	0.0	1.0568509539963258	-0.4017794076550367	0.0	1.0527999775037291	-0.3334551521289814	0.0	1.0526598149202013	-0.3726536630127137	0.0	1.0162416495759616	-0.4260145102877058	0.0	0.9892608958049872	-0.47888833871495284	0.0	0.9997634816860519	-0.5379807601627116	0.0	1.102480330552265	-0.42084870583541273	0.0	1.1442210515496278	-0.46337513969366617	0.0	1.146474805785315	-0.5208277071128475	0.0
94	3.1646666666666663	1.0640384700129562	-0.5748815889597547	0.0	1.0416189255820474	-0.5746394866333686	0.0	1.048717896463802	-0.6766505718345374	0.0	1.0599722673712721	-0.7754437143742735	0.0	1.061678588313972	-0.8042862067558784	0.0	1.0484041494793341	-0.798815689528947	0.0	1.063847834485229	-0.7845576003770416	0.0	1.089470964408568	-0.5719264644503701	0.0	1.0997666000427375	-0.6742113794933334	0.0	1.1119760726346175	-0.776949982284113	0.0	1.1102433726747492	-0.8052090690823975	0.0	1.1285925473433942	-0.7990184189469787	0.0	1.111407758789722	-0.7883676037056594	0.0	1.0596317632280485	-0.4255045626834825	0.0	1.0553182123294134	-0.35669538163617476	0.0	1.054597053851826	-0.3964555338927696	0.0	1.0191335604120197	-0.45007278265474804	0.0	0.992655162778975	-0.5024625099529473	0.0	1.0007621783011704	-0.5616241676710211	0.0	1.1053218855903577	-0.4443143803256555	0.0	1.1477414647261288	-0.48728250061282324	0.0	1.1459558198472248	-0.5452335859688761	0.0
95	3.1983333333333333	1.067568549900787	-0.6012865960943589	0.0	1.0450169781451177	-0.6014580882557712	0.0	1.0529388822013308	-0.7031368443055792	0.0	1.065377999453737	-0.8003498131966647	0.0	1.0651544144196075	-0.8280365910227451	0.0	1.052889217878446	-0.8216662849184287	0.0	1.0699029426994284	-0.8097789693298971	0.0	1.0927378845998856	-0.5989957008228092	0.0	1.104263852948033	-0.7004321521942872	0.0	1.1174534808497218	-0.8025961391751378	0.0	1.1148095041793886	-0.8293229701811937	0.0	1.1343130592747044	-0.8233317000579479	0.0	1.1175996769361023	-0.8142807316020457	0.0	1.0622300274348064	-0.4526244980878806	0.0	1.05751749857122	-0.383719439357442	0.0	1.0563272477269172	-0.4237996780133757	0.0	1.0220619417357135	-0.477077594608525	0.0	0.9969584089760112	-0.5290478986438428	0.0	1.0031440703136911	-0.5872061329711674	0.0	1.107869952463935	-0.47081513614179804	0.0	1.1509043943432913	-0.5142560266142214	0.0	1.145343757293377	-0.5722131959136495	0.0
96	3.2319999999999998	1.0709976398589511	-0.629667860614201	0.0	1.0485627120759	-0.6300176153898746	0.0	1.0570682173453854	-0.7309695974580344	0.0	1.0705466123399663	-0.8254096381589002	0.0	1.066582739330628	-0.851754663644976	0.0	1.056338143131428	-0.8441927437254464	0.0	1.0756232858243429	-0.8350506426901421	0.0	1.0956800879127633	-0.6279793681098997	0.0	1.1078415717630472	-0.7282364267600037	0.0	1.1214580551830169	-0.8284331165199528	0.0	1.1179300102076282	-0.8531051442296308	0.0	1.1380675151374193	-0.8484743038398047	0.0	1.1223655566066186	-0.8396153291490496	0.0	1.0645972901373355	-0.4826646925048511	0.0	1.0592979000622258	-0.4140518422597145	0.0	1.0577952899542193	-0.45416577310599726	0.0	1.0251244316646215	-0.5065051521823647	0.0	1.0022425053117994	-0.5580287358311571	0.0	1.0066357950780693	-0.6144461646176475	0.0	1.1100298504230395	-0.5001747629307896	0.0	1.1535203314000408	-0.5441113971346851	0.0	1.1444151342241018	-0.6018513205613135	0.0
97	3.2656666666666663	1.0742733679154817	-0.6591115151425662	0.0	1.0522788739669313	-0.6594068790289195	0.0	1.0610490096997618	-0.7594304055770107	0.0	1.0751222113144743	-0.8493872756850378	0.0	1.0651477517290941	-0.8744762173848913	0.0	1.0580060459169496	-0.8655971897599418	0.0	1.0805755988552392	-0.8592155366107195	0.0	1.0982474576028856	-0.6579451633223136	0.0	1.1102704782385235	-0.7571067346141431	0.0	1.123688054387527	-0.8532427249824233	0.0	1.1190855110545996	-0.8755852824550346	0.0	1.1392506866127803	-0.874152037784672	0.0	1.1254255921859013	-0.8629013336557424	0.0	1.0667140790686063	-0.5148580816275545	0.0	1.0606206083368466	-0.4467983586373903	0.0	1.058959191536219	-0.4866719336402577	0.0	1.028429879094515	-0.5375827194264307	0.0	1.008432913079811	-0.5885853761464086	0.0	1.010876209383856	-0.6428912649360436	0.0	1.1116996524201508	-0.531808826673221	0.0	1.1553752986083805	-0.576429852734393	0.0	1.1430063002832822	-0.6339860588451919	0.0
98	3.2993333333333332	1.0773664128503642	-0.6887204610865183	0.0	1.0561400491141777	-0.6887558862663069	0.0	1.0647557069323883	-0.7878562739224731	0.0	1.0787489032590727	-0.8713787641222112	0.0	1.060803390587705	-0.8952508753803649	0.0	1.0574299683165778	-0.8854848795091737	0.0	1.084438756846438	-0.881574908104949	0.0	1.100449542220874	-0.6880097636209919	0.0	1.1114755160164735	-0.7865158714574167	0.0	1.124091392758088	-0.8760376480076736	0.0	1.1181367377788594	-0.8961982026438214	0.0	1.1377554207861689	-0.9003392597203019	0.0	1.1266960034152982	-0.8831346729065458	0.0	1.0686081401232828	-0.5483700741556894	0.0	1.0615735377117823	-0.4808880839025901	0.0	1.0598372050743958	-0.5203697102423851	0.0	1.0320439353581956	-0.5695052801386071	0.0	1.0153060364346318	-0.6199016641840038	0.0	1.0154982629794205	-0.6720240043982266	0.0	1.1128423130863367	-0.5649098532577791	0.0	1.1563321457239353	-0.6106101343400394	0.0	1.141067605165432	-0.668165622132374	0.0
